<?xml version="1.0" standalone="no"?>
<!DOCTYPE svg PUBLIC "-//W3C//DTD SVG 20010904//EN"
 "http://www.w3.org/TR/2001/REC-SVG-20010904/DTD/svg10.dtd">
<svg version="1.0" xmlns="http://www.w3.org/2000/svg"
 width="45" height="45" viewBox="0 0 225.000000 225.000000"
 preserveAspectRatio="xMidYMid meet">

<g transform="translate(0.000000,225.000000) scale(0.100000,-0.100000)"
fill="#ffffff" stroke="none">
<path d="M1327 2111 l-130 -128 28 -38 c22 -29 26 -41 18 -53 -17 -27 -43 -26
-74 4 l-30 28 -559 -559 c-308 -308 -565 -572 -571 -587 -17 -41 0 -73 85
-157 l74 -73 57 27 c102 51 212 36 293 -38 65 -61 86 -108 87 -192 0 -57 -5
-80 -28 -125 l-28 -54 78 -78 c84 -81 116 -97 161 -79 15 7 138 121 272 256
234 234 242 244 225 261 -30 30 -65 116 -65 159 0 22 10 60 21 85 23 53 167
203 221 230 80 42 161 35 238 -21 l43 -31 88 88 c49 49 89 94 89 100 0 6 -9
19 -20 29 -24 22 -23 53 2 68 12 8 24 5 50 -15 l35 -27 121 122 c169 170 171
182 45 309 l-76 77 -44 -26 c-32 -18 -64 -27 -112 -31 -59 -4 -74 -1 -125 24
-142 69 -192 217 -121 359 l25 50 -84 83 c-75 74 -87 82 -121 82 -36 0 -48 -9
-168 -129z m42 -311 c24 -24 28 -35 22 -53 -12 -32 -39 -33 -72 -1 -31 30 -36
53 -17 72 19 19 34 14 67 -18z m145 -147 c29 -29 31 -60 4 -77 -14 -8 -23 -5
-48 19 -42 40 -39 81 6 84 6 1 23 -11 38 -26z m151 -148 c29 -28 31 -47 9 -69
-14 -15 -18 -15 -44 1 -39 23 -57 57 -40 78 18 22 47 18 75 -10z m158 -158
c20 -24 22 -38 5 -55 -19 -19 -45 -14 -73 15 -29 32 -32 58 -8 72 20 11 48 -1
76 -32z"/>
<path d="M1466 785 c-54 -53 -76 -82 -76 -100 0 -17 30 -55 108 -136 59 -61
107 -115 107 -119 0 -4 -48 -58 -107 -120 -70 -72 -108 -120 -108 -134 0 -41
138 -176 180 -176 7 0 65 52 129 115 l117 115 84 -86 c92 -93 155 -144 177
-144 16 0 149 124 164 153 15 26 -3 52 -119 169 l-106 108 117 118 c64 65 117
127 117 136 0 21 -134 163 -162 172 -27 8 -57 -15 -172 -128 l-100 -98 -116
115 c-73 72 -125 115 -137 115 -13 0 -52 -31 -97 -75z"/>
</g>
</svg>
