<?xml version="1.0" standalone="no"?><!DOCTYPE svg PUBLIC "-//W3C//DTD SVG 1.1//EN" "http://www.w3.org/Graphics/SVG/1.1/DTD/svg11.dtd">
<svg class="icon" width="65" height="65" viewBox="0 0 1024 1024" version="1.1" xmlns="http://www.w3.org/2000/svg">
<path fill="#ffffff" d="M917.2992 280.9856H921.6v-6.912H102.4v6.912h4.3008a14.0288 14.0288 0 0 1 0 28.1088H102.4v10.24h4.3008a14.08 14.08 0 0 1 0 28.1088H102.4v10.24h4.3008a14.0288 14.0288 0 0 1 0 28.1088H102.4v10.24h4.3008a14.0288 14.0288 0 0 1 0 28.0576H102.4v6.5024c34.0992 1.8432 62.464 25.0368 71.7312 56.32a81.2032 81.2032 0 0 1 0 50.176A79.104 79.104 0 0 1 102.4 593.3568v6.5024h4.3008a14.0288 14.0288 0 0 1 0 28.0576H102.4v10.24h4.3008a14.0288 14.0288 0 0 1 0 28.1088H102.4v10.24h4.3008a14.0288 14.0288 0 0 1 0 28.0576H102.4v10.24h4.3008a14.08 14.08 0 0 1 0 28.1088H102.4v6.912h819.2v-6.912h-4.3008a14.08 14.08 0 1 1 0-28.1088H921.6v-10.24h-4.3008a14.08 14.08 0 1 1 0-28.0576H921.6v-10.24h-4.3008a14.08 14.08 0 1 1 0-28.1088H921.6v-10.24h-4.3008a14.08 14.08 0 1 1 0-28.0576H921.6v-6.5024a79.0016 79.0016 0 0 1-71.68-56.32 80.9472 80.9472 0 0 1 0-50.176A79.104 79.104 0 0 1 921.6 430.592v-6.5024h-4.3008a14.08 14.08 0 1 1 0-28.0576H921.6v-10.24h-4.3008a14.08 14.08 0 1 1 0-28.1088H921.6v-10.24h-4.3008a14.08 14.08 0 1 1 0-28.1088H921.6v-10.24h-4.3008a14.08 14.08 0 1 1 0-28.1088zM512 702.6688a190.6688 190.6688 0 1 1 0-381.2864 190.6688 190.6688 0 0 1 0 381.2864zM632.064 504.9344h-98.8672V420.1984a14.08 14.08 0 0 0-14.1312-14.1312h-14.1312a14.08 14.08 0 0 0-14.1312 14.1312v112.9984c0 7.7824 6.2976 14.1312 14.1312 14.1312H632.064a14.1824 14.1824 0 0 0 14.1312-14.1312v-14.1312a14.1824 14.1824 0 0 0-14.1312-14.1312z" /></svg>