<?xml version="1.0" standalone="no"?>
<!DOCTYPE svg PUBLIC "-//W3C//DTD SVG 20010904//EN"
 "http://www.w3.org/TR/2001/REC-SVG-20010904/DTD/svg10.dtd">
<svg version="1.0" xmlns="http://www.w3.org/2000/svg"
 width="45" height="45" viewBox="0 0 225.000000 225.000000"
 preserveAspectRatio="xMidYMid meet">

<g transform="translate(0.000000,225.000000) scale(0.100000,-0.100000)"
fill="#ffffff" stroke="none">
<path d="M1323 2108 l-133 -132 31 -32 c26 -27 29 -35 20 -53 -16 -30 -55 -27
-81 6 l-21 27 -565 -565 c-667 -667 -616 -590 -483 -733 77 -82 83 -86 100
-70 50 45 183 58 255 25 145 -66 202 -226 131 -367 -29 -57 -33 -49 70 -147
62 -58 76 -67 109 -67 35 0 48 10 196 158 154 153 159 159 149 185 -6 16 -11
93 -11 173 0 159 9 191 67 246 45 43 93 58 188 58 l85 0 0 85 c0 126 34 191
124 237 35 18 54 19 197 16 143 -3 156 -2 143 13 -20 22 -17 46 7 60 18 9 26
6 50 -17 l30 -29 129 131 c126 126 130 132 130 173 0 39 -6 49 -67 114 -98
103 -91 99 -141 70 -31 -18 -63 -27 -111 -31 -59 -4 -74 -1 -125 24 -142 70
-193 221 -122 363 l26 51 -81 80 c-74 74 -84 80 -121 80 -40 0 -47 -6 -175
-132z m39 -305 c32 -31 36 -58 11 -71 -23 -12 -44 -5 -65 22 -23 27 -23 52 0
65 23 14 22 14 54 -16z m152 -152 c20 -21 26 -35 21 -50 -9 -30 -55 -28 -85 4
-22 23 -22 25 -6 50 21 32 36 32 70 -4z m151 -151 c24 -25 27 -34 19 -48 -17
-27 -57 -26 -83 2 -21 22 -23 29 -13 51 15 33 42 32 77 -5z m150 -150 c28 -29
28 -30 10 -50 -23 -26 -43 -25 -72 2 -25 24 -29 48 -11 66 20 20 42 14 73 -18z"/>
<path d="M1583 1016 c-28 -24 -28 -24 -31 -169 l-3 -146 -146 -3 c-145 -3
-145 -3 -169 -31 -22 -26 -24 -36 -24 -147 0 -111 2 -121 24 -147 24 -28 24
-28 169 -31 l145 -3 4 -146 c3 -144 3 -145 31 -169 26 -23 35 -24 150 -24 132
1 148 6 167 54 5 15 10 86 10 157 l0 129 129 0 c135 0 185 10 201 40 6 10 10
73 10 139 0 112 -2 122 -24 148 -24 28 -25 28 -169 31 l-146 4 -3 145 c-3 145
-3 145 -31 169 -26 22 -36 24 -147 24 -111 0 -121 -2 -147 -24z"/>
</g>
</svg>
